<svg preserveAspectRatio="none" overflow="visible" style="display: block;" width="39.9292" height="39.7216" viewBox="0 0 39.9292 39.7216" fill="none" xmlns="http://www.w3.org/2000/svg">
<path id="Vector" d="M20.4615 3.05082L23.2662 1.09695C23.6765 0.810833 24.245 0.931307 24.501 1.36048L26.2705 4.28563C26.4587 4.59434 26.8201 4.75622 27.174 4.68846L30.532 4.04469C31.0214 3.95057 31.492 4.28939 31.556 4.78633L31.9815 8.17831C32.0266 8.53972 32.2902 8.8296 32.644 8.91243L35.972 9.68795C36.4576 9.80089 36.7476 10.3016 36.6045 10.7835L35.6143 14.055C35.5089 14.4013 35.6332 14.7778 35.9193 14.9961L38.6449 17.0592C39.044 17.3604 39.1042 17.9364 38.7767 18.3166L36.5404 20.9029C36.3033 21.1777 36.2619 21.5693 36.4389 21.8855L38.0878 24.8784C38.3287 25.3151 38.1517 25.8685 37.6962 26.0794L34.6017 27.5325C34.2741 27.6869 34.0746 28.0295 34.1085 28.3909L34.3984 31.7979C34.4398 32.2948 34.052 32.7278 33.5513 32.7353L30.133 32.8031C29.7716 32.8106 29.4516 33.044 29.3311 33.3866L28.2092 36.6167C28.0436 37.091 27.5165 37.3245 27.0535 37.1325L23.9025 35.8035C23.5674 35.6642 23.1834 35.7433 22.9349 36.0106L20.5971 38.5066C20.2545 38.8717 19.6747 38.8717 19.3321 38.5066L16.9942 36.0106C16.7458 35.7471 16.3618 35.6642 16.0267 35.8035L12.8757 37.1325C12.4164 37.3282 11.8856 37.091 11.7199 36.6167L10.5981 33.3866C10.4776 33.044 10.1614 32.8106 9.79623 32.8031L6.37787 32.7353C5.87717 32.724 5.48941 32.2948 5.53082 31.7979L5.82071 28.3909C5.85082 28.0295 5.65504 27.6869 5.32751 27.5325L2.23296 26.0794C1.78119 25.8685 1.60048 25.3151 1.84142 24.8784L3.49039 21.8855C3.66357 21.5693 3.62215 21.174 3.38874 20.9029L1.15245 18.3166C0.824922 17.9364 0.885194 17.3604 1.28425 17.0592L4.00987 14.9961C4.29975 14.7778 4.42025 14.4013 4.31483 14.055L3.32468 10.7835C3.17785 10.3054 3.4678 9.80465 3.95721 9.68795L7.28513 8.91243C7.63901 8.8296 7.90254 8.53595 7.94771 8.17831L8.37317 4.78633C8.43717 4.28939 8.90398 3.95057 9.39715 4.04469L12.7552 4.68846C13.1129 4.75622 13.4706 4.59434 13.6588 4.28563L15.4282 1.36048C15.6879 0.931307 16.2526 0.810833 16.663 1.09695L19.4677 3.05082C19.7688 3.25788 20.1641 3.25788 20.4615 3.05082Z" stroke="#757575" stroke-width="1.88234" stroke-miterlimit="10"/>
</svg>
